<svg width="17" height="17" viewBox="0 0 17 17" fill="none" xmlns="http://www.w3.org/2000/svg">
<g clip-path="url(#clip0_423_20)">
<path d="M5.26346 11.7365C5.20272 11.6758 5.15452 11.6038 5.12162 11.5244C5.08873 11.4451 5.07178 11.3601 5.07175 11.2742C5.07172 11.1883 5.08861 11.1033 5.12145 11.0239C5.15428 10.9445 5.20243 10.8724 5.26314 10.8117C5.38574 10.689 5.55206 10.62 5.7255 10.62C5.81138 10.6199 5.89643 10.6368 5.97579 10.6697C6.05514 10.7025 6.12725 10.7506 6.188 10.8114C6.64518 11.2686 7.22769 11.5801 7.86188 11.7063C8.49607 11.8325 9.15344 11.7678 9.75086 11.5204C10.3483 11.273 10.8589 10.854 11.2182 10.3164C11.5775 9.77873 11.7692 9.14663 11.7692 8.50001C11.7692 8.3266 11.8381 8.16029 11.9607 8.03767C12.0834 7.91505 12.2497 7.84616 12.4231 7.84616C12.5965 7.84616 12.7628 7.91505 12.8854 8.03767C13.008 8.16029 13.0769 8.3266 13.0769 8.50001C13.077 9.40529 12.8086 10.2903 12.3057 11.043C11.8028 11.7957 11.0879 12.3824 10.2516 12.7288C9.4152 13.0753 8.49488 13.1659 7.607 12.9893C6.71912 12.8127 5.90356 12.3767 5.26346 11.7365Z" fill="white"/>
<path d="M10.827 10.3517C10.7556 10.3993 10.6755 10.4325 10.5912 10.4492C10.507 10.4658 10.4203 10.4658 10.3361 10.449C10.2519 10.4321 10.1718 10.3989 10.1004 10.3511C10.0291 10.3034 9.96781 10.242 9.92015 10.1706C9.8725 10.0991 9.83938 10.019 9.82269 9.93477C9.806 9.85054 9.80607 9.76384 9.82289 9.67962C9.83971 9.59541 9.87295 9.51534 9.92071 9.44397C9.96848 9.37261 10.0298 9.31135 10.1013 9.26369L12.0628 7.956C12.2071 7.85976 12.3837 7.82477 12.5538 7.85874C12.7238 7.8927 12.8734 7.99284 12.9697 8.13711C13.0659 8.28139 13.1009 8.45799 13.067 8.62807C13.033 8.79814 12.9329 8.94776 12.7886 9.044L10.827 10.3517Z" fill="white"/>
<path d="M14.2748 10.0987C14.3224 10.1701 14.3555 10.2502 14.3722 10.3345C14.3889 10.4187 14.3888 10.5054 14.372 10.5896C14.3552 10.6738 14.322 10.7539 14.2742 10.8253C14.2264 10.8966 14.1651 10.9579 14.0937 11.0055C14.0222 11.0532 13.9421 11.0863 13.8578 11.103C13.7736 11.1197 13.6869 11.1196 13.6027 11.1028C13.5185 11.086 13.4384 11.0527 13.367 11.005C13.2957 10.9572 13.2344 10.8959 13.1868 10.8244L11.8791 8.86289C11.8314 8.79145 11.7983 8.71132 11.7816 8.62709C11.7649 8.54285 11.765 8.45615 11.7818 8.37194C11.8158 8.20186 11.9159 8.05225 12.0602 7.956C12.2045 7.85976 12.3811 7.82477 12.5511 7.85874C12.6354 7.87556 12.7154 7.9088 12.7868 7.95656C12.8582 8.00433 12.9194 8.06568 12.9671 8.13712L14.2748 10.0987ZM11.6757 5.13335C11.7382 5.19366 11.788 5.26581 11.8223 5.34559C11.8565 5.42536 11.8746 5.51115 11.8753 5.59797C11.8761 5.68479 11.8595 5.77089 11.8267 5.85124C11.7938 5.9316 11.7452 6.0046 11.6838 6.06599C11.6224 6.12738 11.5494 6.17593 11.4691 6.20881C11.3887 6.24169 11.3026 6.25823 11.2158 6.25748C11.129 6.25672 11.0432 6.23868 10.9634 6.20442C10.8837 6.17015 10.8115 6.12034 10.7512 6.05789C10.294 5.60056 9.7114 5.28909 9.07715 5.1629C8.4429 5.0367 7.78548 5.10145 7.18803 5.34894C6.59058 5.59643 6.07995 6.01555 5.72073 6.55328C5.36151 7.09102 5.16984 7.72321 5.16996 8.36989C5.16996 8.5433 5.10107 8.70961 4.97845 8.83223C4.85583 8.95485 4.68952 9.02373 4.51611 9.02373C4.3427 9.02373 4.17639 8.95485 4.05377 8.83223C3.93115 8.70961 3.86227 8.5433 3.86227 8.36989C3.8622 7.46461 4.1306 6.57965 4.63351 5.82691C5.13643 5.07418 5.85127 4.48749 6.68763 4.14105C7.524 3.79461 8.44431 3.70397 9.33219 3.8806C10.2201 4.05723 11.0356 4.49319 11.6757 5.13335Z" fill="white"/>
<path d="M6.11281 6.51819C6.25709 6.42195 6.43369 6.38696 6.60376 6.42093C6.77384 6.4549 6.92345 6.55503 7.0197 6.69931C7.11594 6.84359 7.15093 7.02019 7.11696 7.19026C7.08299 7.36034 6.98286 7.50995 6.83858 7.60619L4.87639 8.91389C4.80495 8.96154 4.72482 8.99466 4.64059 9.01135C4.55635 9.02804 4.46965 9.02797 4.38544 9.01115C4.30122 8.99433 4.22115 8.96109 4.14978 8.91333C4.07842 8.86556 4.01716 8.80421 3.9695 8.73277C3.87326 8.58849 3.83827 8.41189 3.87224 8.24182C3.90621 8.07174 4.00634 7.92213 4.15062 7.82589L6.11281 6.51819Z" fill="white"/>
<path d="M2.66442 6.77124C2.61677 6.6998 2.58365 6.61967 2.56696 6.53543C2.55028 6.4512 2.55034 6.3645 2.56716 6.28028C2.58398 6.19607 2.61722 6.116 2.66498 6.04463C2.71275 5.97327 2.7741 5.91201 2.84554 5.86435C2.91698 5.8167 2.9971 5.78358 3.08134 5.76689C3.16558 5.7502 3.25228 5.75027 3.33649 5.76709C3.4207 5.78391 3.50078 5.81715 3.57214 5.86491C3.64351 5.91268 3.70477 5.97403 3.75242 6.04547L5.06012 8.00701C5.15636 8.15128 5.19135 8.32788 5.15738 8.49796C5.12342 8.66803 5.02328 8.81765 4.879 8.91389C4.73472 9.01013 4.55812 9.04512 4.38805 9.01116C4.21797 8.97719 4.06836 8.87705 3.97212 8.73278L2.66442 6.77124Z" fill="white"/>
<path fill-rule="evenodd" clip-rule="evenodd" d="M8.5 15.6923C12.4721 15.6923 15.6923 12.4721 15.6923 8.5C15.6923 4.52788 12.4721 1.30769 8.5 1.30769C4.52788 1.30769 1.30769 4.52788 1.30769 8.5C1.30769 12.4721 4.52788 15.6923 8.5 15.6923ZM8.5 17C13.1946 17 17 13.1946 17 8.5C17 3.80538 13.1946 0 8.5 0C3.80538 0 0 3.80538 0 8.5C0 13.1946 3.80538 17 8.5 17Z" fill="white"/>
</g>
<defs>
<clipPath id="clip0_423_20">
<rect width="17" height="17" fill="white"/>
</clipPath>
</defs>
</svg>
